<?xml version="1.0" standalone="no"?>
<!DOCTYPE svg PUBLIC "-//W3C//DTD SVG 20010904//EN"
 "http://www.w3.org/TR/2001/REC-SVG-20010904/DTD/svg10.dtd">
<svg version="1.0" xmlns="http://www.w3.org/2000/svg"
 width="571.000000pt" height="571.000000pt" viewBox="0 0 571.000000 571.000000"
 preserveAspectRatio="xMidYMid meet">
<metadata>
Created by potrace 1.14, written by Peter Selinger 2001-2017
</metadata>
<g transform="translate(0.000000,571.000000) scale(0.100000,-0.100000)"
fill="#000000" stroke="none">
<path d="M2936 5653 c-1 -2 -569 -5 -1262 -8 -692 -2 -1278 -6 -1301 -9 -122
-13 -270 -142 -299 -261 -2 -5 -6 -21 -9 -35 -11 -44 -26 -4983 -15 -5025 9
-37 60 -125 93 -162 28 -31 123 -94 152 -100 5 -1 21 -5 35 -8 33 -9 1429 -7
1443 2 7 4 8 0 3 -13 -6 -15 -5 -17 5 -6 7 6 22 12 34 12 12 0 27 -6 34 -12 9
-9 12 -9 7 -1 -4 8 14 12 69 12 42 0 80 3 85 6 6 4 10 3 10 -2 0 -9 235 -7
250 2 5 3 10 -2 10 -12 0 -13 2 -15 9 -5 6 10 41 12 149 10 90 -2 142 1 142 7
0 6 5 3 10 -5 7 -11 10 -11 10 -2 0 9 5 10 17 3 11 -6 24 -6 35 0 13 7 18 6
18 -3 0 -9 3 -9 10 2 8 12 10 12 11 -5 0 -15 2 -16 7 -5 5 11 23 15 60 15 39
0 52 -4 52 -15 0 -12 2 -13 9 -1 9 14 208 17 1936 24 325 2 596 6 602 10 7 5
22 10 33 12 30 6 90 36 90 46 0 5 4 8 9 6 5 -1 30 20 55 46 29 30 51 45 59 41
9 -6 9 -4 -1 8 -10 13 -10 19 2 31 8 8 17 25 20 38 2 13 9 36 14 50 6 15 8 30
4 34 -3 3 0 10 8 15 11 7 12 10 2 10 -7 0 -10 5 -7 10 3 6 6 94 5 196 0 137 3
191 12 202 7 9 8 13 2 9 -7 -4 -11 19 -12 74 -1 57 2 78 10 73 7 -5 8 -3 2 7
-10 16 -17 107 -9 128 4 11 8 11 23 0 15 -13 16 -12 3 3 -7 10 -17 16 -21 13
-4 -3 -8 29 -8 70 0 51 3 75 11 75 7 0 6 4 -3 10 -13 9 -13 11 0 20 8 5 10 10
4 10 -15 0 -15 140 0 140 7 0 6 4 -2 9 -13 8 -13 54 0 67 4 3 1 15 -5 25 -10
16 -9 21 3 29 8 5 10 10 4 10 -14 0 -14 153 0 162 8 6 8 8 0 8 -10 0 -12 1061
-5 2400 1 124 1 230 1 235 -1 6 -1 39 0 75 5 275 4 836 -2 883 -16 120 -92
223 -206 279 l-67 33 -1223 0 c-673 0 -1225 -1 -1226 -2z"/>
</g>
</svg>
